<svg xmlns="http://www.w3.org/2000/svg" width="1490" height="353">
<path style="fill:#010101; stroke:none;" d="M0 0L0 212L1 212C1 165.783 9.25319 115.418 22 71C26.549 55.1483 31.4342 33.1575 45.0147 22.3943C56.7922 13.06 80.7052 14.8949 95 13.9105C137.565 10.9792 180.293 8.20517 223 7.99924C266.935 7.78738 311.063 5.09122 355 4.01465C463.605 1.35349 572.285 1 681 1L662 0L622 0L483 0L0 0z"/>
<path style="fill:#ffa9d9; stroke:none;" d="M681 0.424377C639.715 5.84506 595.645 -0.00576782 554 1.01465C444.352 3.70135 334.534 3.16385 225 7.96063C181.662 9.85852 138.204 9.716 95 13.8302C80.385 15.222 58.9384 13.0558 46.0039 21.0054C30.5398 30.5097 24.9609 58.6714 20.8735 75C8.05521 126.207 0 180.201 0 233C0 250.402 -5.27969 291.148 16 298.25C32.6576 303.809 51.6536 304.435 69 306.169C97.3065 308.999 125.717 310.478 154 313.17C255.907 322.868 358.765 325.563 461 330.039C680.607 339.656 900.104 345.628 1120 351.015C1188.79 352.7 1258.2 355.052 1327 352.039C1359.5 350.616 1394.11 354.561 1426 346.761C1447.11 341.598 1454.45 306.932 1460.02 289C1478.99 227.968 1490 159.862 1490 96C1490 78.2025 1490.53 60.4054 1486.1 43C1484.01 34.7592 1480.29 25.8418 1472 22.2724C1448.5 12.1578 1417.09 13.6304 1392 11.9105C1334.71 7.9837 1277.44 6.3927 1220 4.98535C1097.12 1.97433 974.038 0 851 0L739 0C720.056 0 699.782 -2.04166 681 0.424377z"/>
<path style="fill:#010101; stroke:none;" d="M921 0L921 1C1066.17 1 1212.33 0.00326538 1357 9.91049C1384.05 11.7629 1410.97 13.4116 1438 15.9251C1449.51 16.9951 1466.73 17.5967 1475.98 25.2747C1486.19 33.7436 1488.9 51.4355 1489 64L1490 64L1490 0L921 0z"/>
<path style="fill:#ffffff; stroke:none;" d="M548 1L549 2L548 1z"/>
<path style="fill:#ffa9e9; stroke:none;" d="M1043 1L1044 2L1043 1z"/>
<path style="fill:#e175b5; stroke:none;" d="M401 3L402 4L401 3z"/>
<path style="fill:#ffffff; stroke:none;" d="M1309 7L1310 8L1309 7z"/>
<path style="fill:#ffa9e9; stroke:none;" d="M200 8L201 9L200 8M173 9L174 10L173 9z"/>
<path style="fill:#ffffff; stroke:none;" d="M1372 10L1373 11L1372 10z"/>
<path style="fill:#ffa9e9; stroke:none;" d="M131 11L132 12L131 11z"/>
<path style="fill:#e175b5; stroke:none;" d="M1388 11L1389 12L1388 11M1480 29L1481 30L1480 29z"/>
<path style="fill:#ffa9e9; stroke:none;" d="M36 32L37 33L36 32z"/>
<path style="fill:#e175b5; stroke:none;" d="M1483 35L1484 36L1483 35z"/>
<path style="fill:#ffa9e9; stroke:none;" d="M31 42L32 43L31 42z"/>
<path style="fill:#e175b5; stroke:none;" d="M29 47L30 48L29 47M175 177C174.828 172.999 172.889 167.929 173.89 164.039C175.345 158.381 183.88 153.015 187.251 148C194.565 137.117 197.807 123.025 196.91 110C194.132 69.6511 149.057 41.5697 116.09 71.4391C110.732 76.2929 106.828 82.5022 103.782 89C95.6557 106.333 96.4776 128.33 105.876 145C109.264 151.009 122.745 160.478 122.092 167.015C120.485 183.09 95.3055 175.351 84 179.931C69.5415 185.787 61.4188 210.444 61.1296 225C60.7779 242.703 83.5853 241.249 96 242.715C126.357 246.298 157.436 246 188 246C198.236 246 214.924 248.963 223.945 243.142C232.266 237.772 229.154 222.899 226.989 215C220.037 189.633 200.728 179.101 175 177M1489 64L1490 65L1489 64z"/>
<path style="fill:#ffa9e9; stroke:none;" d="M23 65L24 66L23 65z"/>
<path style="fill:#ffffff; stroke:none;" d="M21 72L22 73L21 72z"/>
<path style="fill:#ffa9e9; stroke:none;" d="M20 76L21 77L20 76M19 80L20 81L19 80z"/>
<path style="fill:#e175b5; stroke:none;" d="M18 84L19 85L18 84M12 113L13 114L12 113z"/>
<path style="fill:#ffa9e9; stroke:none;" d="M1489 116L1490 117L1489 116z"/>
<path style="fill:#010101; stroke:none;" d="M1489 117C1489 173.347 1475.83 233.019 1460.42 287C1455.43 304.494 1448.46 333.748 1432 344.005C1421.9 350.296 1406.46 349.537 1395 350.039C1370.97 351.093 1347.13 352 1323 352L1323 353L1490 353L1490 187L1490 139L1489 117z"/>
<path style="fill:#e175b5; stroke:none;" d="M10 124L11 125L10 124z"/>
<path style="fill:#ffffff; stroke:none;" d="M1487 142L1488 143L1487 142M7 143L8 144L7 143M1484 168L1485 169L1484 168z"/>
<path style="fill:#ffa9e9; stroke:none;" d="M1483 175L1484 176L1483 175z"/>
<path style="fill:#e175b5; stroke:none;" d="M2 186L3 187L2 186z"/>
<path style="fill:#ffffff; stroke:none;" d="M1 197L2 198L1 197M1478 207L1479 208L1478 207z"/>
<path style="fill:#e175b5; stroke:none;" d="M0 212L1 213L0 212z"/>
<path style="fill:#ffa9e9; stroke:none;" d="M1476 218L1477 219L1476 218z"/>
<path style="fill:#e175b5; stroke:none;" d="M1471 243L1472 244L1471 243z"/>
<path style="fill:#ffffff; stroke:none;" d="M1469 252L1470 253L1469 252z"/>
<path style="fill:#010101; stroke:none;" d="M0 265L0 353L1206 353L1206 352C902.57 352 599.738 335.296 297 322.039C228.308 319.031 159.479 314.713 91 308.17C72.9654 306.447 54.9599 304.86 37 302.271C28.7942 301.088 17.9098 300.44 11.0432 295.351C1.13945 288.011 4.13402 274.83 0 265z"/>
<path style="fill:#ffffff; stroke:none;" d="M1 273L2 274L1 273z"/>
<path style="fill:#ffa9e9; stroke:none;" d="M1463 276L1464 277L1463 276z"/>
<path style="fill:#e175b5; stroke:none;" d="M1459 290L1460 291L1459 290M7 292L8 293L7 292z"/>
<path style="fill:#ffa9e9; stroke:none;" d="M1457 296L1458 297L1457 296M1454 305L1455 306L1454 305z"/>
<path style="fill:#ffffff; stroke:none;" d="M81 307L82 308L81 307z"/>
<path style="fill:#ffa9e9; stroke:none;" d="M93 308L94 309L93 308M116 310L117 311L116 310M156 313L157 314L156 313M200 316L201 317L200 316z"/>
<path style="fill:#ffffff; stroke:none;" d="M215 317L216 318L215 317z"/>
<path style="fill:#ffa9e9; stroke:none;" d="M231 318L232 319L231 318M1449 318L1450 319L1449 318M249 319L250 320L249 319M284 321L285 322L284 321z"/>
<path style="fill:#ffffff; stroke:none;" d="M301 322L302 323L301 322z"/>
<path style="fill:#e175b5; stroke:none;" d="M378 326L379 327L378 326z"/>
<path style="fill:#ffa9e9; stroke:none;" d="M422 328L423 329L422 328M465 330L466 331L465 330M486 331L487 332L486 331M1442 332L1443 333L1442 332z"/>
<path style="fill:#e175b5; stroke:none;" d="M606 336L607 337L606 336M1438 338L1439 339L1438 338z"/>
<path style="fill:#ffffff; stroke:none;" d="M713 340L714 341L713 340z"/>
<path style="fill:#ffa9e9; stroke:none;" d="M744 341L745 342L744 341M774 342L775 343L774 342M835 344L836 345L835 344z"/>
<path style="fill:#ffffff; stroke:none;" d="M939 347L940 348L939 347M1422 347L1423 348L1422 347z"/>
<path style="fill:#ffa9e9; stroke:none;" d="M979 348L980 349L979 348M1405 349L1406 350L1405 349M1206 352L1207 353L1206 352M1322 352L1323 353L1322 352z"/>
</svg>
