<svg width="21" height="27" viewBox="0 0 21 27" fill="none" xmlns="http://www.w3.org/2000/svg">
<path d="M2.04369 0.799658C2.39638 0.618043 2.79234 0.537247 3.18799 0.56616C3.58364 0.595073 3.96365 0.732574 4.28619 0.963533L19.38 11.7448C19.6595 11.9442 19.8873 12.2076 20.0445 12.5129C20.2017 12.8182 20.2837 13.1566 20.2837 13.5C20.2837 13.8434 20.2017 14.1818 20.0445 14.4871C19.8873 14.7924 19.6595 15.0557 19.38 15.2552L4.28619 26.0364C3.96376 26.2672 3.58394 26.4046 3.18849 26.4335C2.79304 26.4624 2.39728 26.3817 2.04471 26.2003C1.69214 26.0189 1.39642 25.7438 1.19006 25.4052C0.983693 25.0666 0.874679 24.6777 0.875001 24.2812V2.71872C0.874586 2.32233 0.983448 1.93349 1.18962 1.59493C1.3958 1.25638 1.69131 0.981206 2.04369 0.799658Z" fill="white"/>
</svg>
